<svg xmlns="http://www.w3.org/2000/svg" viewBox="0 0 1480 843" width="1480" height="843" font-family="Inter, -apple-system, BlinkMacSystemFont, 'Segoe UI', Roboto, Helvetica, Arial, sans-serif">
  <defs>
    <radialGradient id="bg" cx="50%" cy="28%" r="85%">
      <stop offset="0" stop-color="#f2f3e3"/>
      <stop offset="55%" stop-color="#eceedb"/>
      <stop offset="100%" stop-color="#e4e6cf"/>
    </radialGradient>
    <linearGradient id="chartFill" x1="0" y1="0" x2="0" y2="1">
      <stop offset="0" stop-color="#5b8def" stop-opacity="0.35"/>
      <stop offset="1" stop-color="#5b8def" stop-opacity="0"/>
    </linearGradient>
    <filter id="editorShadow" x="-15%" y="-15%" width="130%" height="135%">
      <feDropShadow dx="0" dy="10" stdDeviation="18" flood-color="#585b40" flood-opacity="0.20"/>
    </filter>
    <filter id="cardShadow" x="-25%" y="-25%" width="150%" height="155%">
      <feDropShadow dx="0" dy="12" stdDeviation="16" flood-color="#0a0e18" flood-opacity="0.50"/>
    </filter>
    <filter id="btnShadow" x="-30%" y="-30%" width="160%" height="180%">
      <feDropShadow dx="0" dy="4" stdDeviation="6" flood-color="#6b6e4f" flood-opacity="0.16"/>
    </filter>
  </defs>

  <rect x="0" y="0" width="1480" height="843" fill="url(#bg)"/>

  <!-- ===== NAV ===== -->
  <rect x="200" y="17" width="35" height="35" rx="8" fill="#2d3142"/>
  <text x="217.5" y="41" font-size="17" font-weight="700" fill="#ffffff" text-anchor="middle">K</text>
  <text x="245" y="41" font-size="16"><tspan font-weight="700" fill="#2d3142">Kaviya</tspan><tspan fill="#9a9c85">.dev</tspan></text>

  <g font-size="13" fill="#6b6d5e">
    <text x="518" y="38" font-weight="600" fill="#2d3142">Home</text>
    <line x1="518" y1="44" x2="550" y2="44" stroke="#2d3142" stroke-width="2"/>
    <text x="588" y="38">About</text>
    <text x="659" y="38">Skills</text>
    <text x="725" y="38">Projects</text>
    <text x="807" y="38">Experience</text>
    <text x="907" y="38">Education</text>
    <text x="1003" y="38">Contact</text>
  </g>

  <rect x="1244" y="17" width="35" height="35" rx="8" fill="#fbfcf3" stroke="#e0e1cd" stroke-width="1" filter="url(#btnShadow)"/>
  <svg x="1253" y="26" width="17" height="17" viewBox="0 0 24 24" fill="none" stroke="#5a5d52" stroke-width="2" stroke-linecap="round" stroke-linejoin="round">
    <path d="M12 3a6 6 0 0 0 9 9 9 9 0 1 1-9-9Z"/>
  </svg>

  <!-- ===== LEFT CONTENT ===== -->
  <!-- badge -->
  <rect x="204" y="133" width="158" height="35" rx="17.5" fill="#f7f8ec" stroke="#e2e3ce" stroke-width="1" filter="url(#btnShadow)"/>
  <svg x="218" y="143" width="16" height="16" viewBox="0 0 24 24" fill="none" stroke="#3a3e4d" stroke-width="2" stroke-linecap="round" stroke-linejoin="round">
    <polyline points="16 18 22 12 16 6"/><polyline points="8 6 2 12 8 18"/>
  </svg>
  <text x="242" y="156" font-size="12" font-weight="500" fill="#3a3e4d">ICT Undergraduate</text>

  <!-- heading -->
  <text x="202" y="282" font-size="88" font-weight="800" letter-spacing="-1" fill="#2d3142">Kaviya</text>
  <text x="202" y="372" font-size="88" font-weight="800" letter-spacing="-1" fill="#2d3142">Rajan</text>

  <!-- subheading -->
  <text x="204" y="420" font-size="28" font-weight="600" fill="#828799">Full Stack Developer</text>
  <rect x="491" y="399" width="3" height="26" fill="#6b7280"/>

  <!-- paragraph -->
  <g font-size="16" fill="#5d6052">
    <text x="204" y="474">I'm an ICT undergraduate and aspiring Full Stack Developer</text>
    <text x="204" y="502">passionate about web and software development — building</text>
    <text x="204" y="530">with Java, MySQL, and modern web technologies, and eager</text>
    <text x="204" y="558">to contribute to real-world IT projects.</text>
  </g>

  <!-- buttons -->
  <rect x="204" y="588" width="158" height="50" rx="10" fill="#2d3142" filter="url(#btnShadow)"/>
  <text x="224" y="618" font-size="13" font-weight="600" fill="#ffffff">View Projects</text>
  <svg x="328" y="605" width="17" height="17" viewBox="0 0 24 24" fill="none" stroke="#ffffff" stroke-width="2" stroke-linecap="round" stroke-linejoin="round">
    <path d="M5 12h14"/><path d="m12 5 7 7-7 7"/>
  </svg>

  <rect x="375" y="588" width="147" height="50" rx="10" fill="#f7f8ec" stroke="#d9dac4" stroke-width="1" filter="url(#btnShadow)"/>
  <text x="396" y="618" font-size="13" font-weight="500" fill="#2d3142">Contact Me</text>
  <svg x="480" y="606" width="15" height="15" viewBox="0 0 24 24" fill="none" stroke="#2d3142" stroke-width="2" stroke-linecap="round" stroke-linejoin="round">
    <rect x="2" y="4" width="20" height="16" rx="2"/><path d="m22 7-8.97 5.7a1.94 1.94 0 0 1-2.06 0L2 7"/>
  </svg>

  <!-- availability -->
  <circle cx="209" cy="664" r="4" fill="#3ba776"/>
  <text x="222" y="668" font-size="13" fill="#5d6052">Available for new opportunities</text>

  <!-- ===== CODE EDITOR ===== -->
  <rect x="739" y="245" width="564" height="324" rx="11" fill="#131a29" filter="url(#editorShadow)"/>
  <!-- title bar -->
  <circle cx="758" cy="262" r="5.5" fill="#ff5f57"/>
  <circle cx="776" cy="262" r="5.5" fill="#febc2e"/>
  <circle cx="794" cy="262" r="5.5" fill="#28c840"/>
  <text x="818" y="267" font-size="12.5" fill="#8b91a3" font-family="'SFMono-Regular', Consolas, 'Liberation Mono', Menlo, monospace">App.tsx — kaviya-portfolio</text>
  <line x1="739" y1="284" x2="1303" y2="284" stroke="#232a3a" stroke-width="1"/>

  <!-- sidebar -->
  <rect x="739" y="284" width="119" height="254" fill="#0f1521"/>
  <line x1="858" y1="284" x2="858" y2="538" stroke="#232a3a" stroke-width="1"/>
  <text x="751" y="306" font-size="9.5" fill="#5b6273" letter-spacing="1.5">EXPLORER</text>

  <svg x="749" y="323" width="11" height="11" viewBox="0 0 24 24" fill="none" stroke="#aab0c0" stroke-width="2.5" stroke-linecap="round" stroke-linejoin="round"><path d="m6 9 6 6 6-6"/></svg>
  <text x="763" y="331" font-size="12" fill="#aab0c0">src</text>

  <svg x="765" y="345" width="13" height="13" viewBox="0 0 24 24" fill="#e0a458"><path d="M4 4h5l2 2h9a1 1 0 0 1 1 1v11a1 1 0 0 1-1 1H4a1 1 0 0 1-1-1V5a1 1 0 0 1 1-1z"/></svg>
  <text x="782" y="354" font-size="12" fill="#9aa0b0">components</text>

  <svg x="765" y="367" width="13" height="13" viewBox="0 0 24 24" fill="#e0a458"><path d="M4 4h5l2 2h9a1 1 0 0 1 1 1v11a1 1 0 0 1-1 1H4a1 1 0 0 1-1-1V5a1 1 0 0 1 1-1z"/></svg>
  <text x="782" y="376" font-size="12" fill="#9aa0b0">pages</text>

  <svg x="765" y="389" width="13" height="13" viewBox="0 0 24 24" fill="#e0a458"><path d="M4 4h5l2 2h9a1 1 0 0 1 1 1v11a1 1 0 0 1-1 1H4a1 1 0 0 1-1-1V5a1 1 0 0 1 1-1z"/></svg>
  <text x="782" y="398" font-size="12" fill="#9aa0b0">hooks</text>

  <rect x="745" y="411" width="108" height="20" rx="5" fill="#29334a"/>
  <svg x="765" y="414" width="13" height="13" viewBox="0 0 24 24" fill="none" stroke="#cfd5e0" stroke-width="2" stroke-linecap="round" stroke-linejoin="round"><path d="M14 3H7a2 2 0 0 0-2 2v14a2 2 0 0 0 2 2h10a2 2 0 0 0 2-2V8z"/><path d="M14 3v5h5"/></svg>
  <text x="782" y="425" font-size="12" fill="#d8dce6">App.tsx</text>

  <svg x="765" y="436" width="13" height="13" viewBox="0 0 24 24" fill="none" stroke="#9aa0b0" stroke-width="2" stroke-linecap="round" stroke-linejoin="round"><path d="M14 3H7a2 2 0 0 0-2 2v14a2 2 0 0 0 2 2h10a2 2 0 0 0 2-2V8z"/><path d="M14 3v5h5"/></svg>
  <text x="782" y="447" font-size="12" fill="#9aa0b0">index.tsx</text>

  <svg x="765" y="459" width="13" height="13" viewBox="0 0 24 24" fill="none">
    <circle cx="12" cy="12" r="8" fill="none" stroke="#9aa0b0" stroke-width="2"/>
    <circle cx="9" cy="10" r="1.7" fill="#f07178"/><circle cx="14.5" cy="9" r="1.7" fill="#ffcb6b"/><circle cx="15" cy="14.5" r="1.7" fill="#89ddff"/>
  </svg>
  <text x="782" y="470" font-size="12" fill="#9aa0b0">styles</text>

  <!-- code -->
  <g font-family="'SFMono-Regular', Consolas, 'Liberation Mono', Menlo, monospace" font-size="12">
    <g text-anchor="end" fill="#4b5263" font-size="11.5">
      <text x="880" y="314">1</text><text x="880" y="337">2</text><text x="880" y="359">3</text>
      <text x="880" y="382">4</text><text x="880" y="404">5</text><text x="880" y="427">6</text>
      <text x="880" y="450">7</text><text x="880" y="472">8</text><text x="880" y="495">9</text><text x="880" y="517">10</text>
    </g>
    <text x="894" y="314"><tspan fill="#c792ea">import</tspan><tspan fill="#8b93a6"> { </tspan><tspan fill="#89ddff">useState</tspan><tspan fill="#8b93a6"> } </tspan><tspan fill="#c792ea">from</tspan><tspan fill="#8b93a6"> </tspan><tspan fill="#ecc48d">'react'</tspan></text>
    <text x="894" y="337"><tspan fill="#c792ea">import</tspan><tspan fill="#8b93a6"> { </tspan><tspan fill="#89ddff">Dashboard</tspan><tspan fill="#8b93a6"> } </tspan><tspan fill="#c792ea">from</tspan><tspan fill="#8b93a6"> </tspan><tspan fill="#ecc48d">'./Dashboard'</tspan></text>
    <text x="894" y="382"><tspan fill="#c792ea">export default function </tspan><tspan fill="#ffcb6b">App</tspan><tspan fill="#8b93a6">() {</tspan></text>
    <text x="908" y="404"><tspan fill="#c792ea">const </tspan><tspan fill="#8b93a6">[</tspan><tspan fill="#c8cedd">user, setUser</tspan><tspan fill="#8b93a6">] = </tspan><tspan fill="#89ddff">useSta</tspan></text>
    <text x="908" y="427"><tspan fill="#c792ea">return </tspan><tspan fill="#8b93a6">(</tspan></text>
    <text x="923" y="450"><tspan fill="#f07178">&lt;main </tspan><tspan fill="#82aaff">className</tspan><tspan fill="#8b93a6">=</tspan><tspan fill="#ecc48d">"app"</tspan><tspan fill="#f07178">&gt;</tspan></text>
    <text x="937" y="472"><tspan fill="#f07178">&lt;Dashboard </tspan><tspan fill="#82aaff">user</tspan><tspan fill="#8b93a6">=</tspan><tspan fill="#8b93a6">{</tspan><tspan fill="#c8cedd">user</tspan><tspan fill="#8b93a6">}/&gt;</tspan></text>
    <text x="923" y="495"><tspan fill="#f07178">&lt;/main&gt;</tspan></text>
    <text x="908" y="517"><tspan fill="#8b93a6">)</tspan></text>
    <rect x="916" y="506" width="6" height="13" fill="#5b8def"/>
  </g>

  <!-- status bar -->
  <line x1="739" y1="538" x2="1303" y2="538" stroke="#232a3a" stroke-width="1"/>
  <text x="751" y="557" font-size="12" font-family="'SFMono-Regular', Consolas, 'Liberation Mono', Menlo, monospace"><tspan fill="#6cc04a">→ ~/portfolio</tspan><tspan fill="#6b7280"> npm run dev — ready in 517ms</tspan></text>

  <!-- ===== DASHBOARD CARD ===== -->
  <rect x="1098" y="349" width="318" height="258" rx="14" fill="#1a2236" filter="url(#cardShadow)"/>
  <text x="1115" y="379" font-size="13"><tspan font-weight="700" fill="#ffffff">Dashboard</tspan><tspan fill="#6b7280" font-size="11"> · live</tspan></text>
  <circle cx="1372" cy="375" r="3.5" fill="#3ddc84"/>
  <text x="1382" y="379" font-size="11" fill="#3ddc84">live</text>

  <!-- chart -->
  <path d="M1115 426 L1156 421 L1197 424 L1238 415 L1279 417 L1320 408 L1361 403 L1400 398 L1400 432 L1115 432 Z" fill="url(#chartFill)"/>
  <path d="M1115 426 L1156 421 L1197 424 L1238 415 L1279 417 L1320 408 L1361 403 L1400 398" fill="none" stroke="#5b8def" stroke-width="2" stroke-linecap="round" stroke-linejoin="round"/>

  <!-- stat boxes -->
  <rect x="1114" y="444" width="140" height="68" rx="9" fill="#232c42"/>
  <text x="1128" y="463" font-size="9.5" fill="#8b91a3">Users</text>
  <text x="1128" y="487" font-size="17" font-weight="700" fill="#ffffff">12,540</text>
  <text x="1128" y="504" font-size="9.5" fill="#3ddc84">↑ 12.5%</text>

  <rect x="1262" y="444" width="140" height="68" rx="9" fill="#232c42"/>
  <text x="1276" y="463" font-size="9.5" fill="#8b91a3">Revenue</text>
  <text x="1276" y="487" font-size="17" font-weight="700" fill="#ffffff">$24.8k</text>
  <text x="1276" y="504" font-size="9.5" fill="#3ddc84">↑ 8.2%</text>

  <!-- performance -->
  <text x="1128" y="548" font-size="9.5" fill="#8b91a3">Performance</text>
  <text x="1128" y="572" font-size="17" font-weight="700" fill="#ffffff">98.6%</text>
  <circle cx="1370" cy="558" r="17" fill="none" stroke="#2a3346" stroke-width="4"/>
  <circle cx="1370" cy="558" r="17" fill="none" stroke="#5b8def" stroke-width="4" stroke-linecap="round" stroke-dasharray="100 7" transform="rotate(-90 1370 558)"/>
</svg>
